<?xml version="1.0" encoding="us-ascii" standalone="no"?><svg xmlns="http://www.w3.org/2000/svg" xmlns:xlink="http://www.w3.org/1999/xlink" contentStyleType="text/css" height="1185px" preserveAspectRatio="none" style="width:1546px;height:1185px;background:#FFFFFF;" version="1.1" viewBox="0 0 1546 1185" width="1546px" zoomAndPan="magnify"><defs/><g><rect fill="#FFFFFF" height="899.9844" style="stroke:#181818;stroke-width:1.0;" width="10" x="384" y="178.9922"/><rect fill="#FFFFFF" height="862.8516" style="stroke:#181818;stroke-width:1.0;" width="10" x="389" y="216.125"/><rect fill="#FFFFFF" height="820.7188" style="stroke:#181818;stroke-width:1.0;" width="10" x="394" y="258.2578"/><rect fill="#FFFFFF" height="778.5859" style="stroke:#181818;stroke-width:1.0;" width="10" x="399" y="300.3906"/><rect fill="#FFFFFF" height="707.3203" style="stroke:#181818;stroke-width:1.0;" width="10" x="404" y="371.6563"/><rect fill="#FFFFFF" height="665.1875" style="stroke:#181818;stroke-width:1.0;" width="10" x="409" y="413.7891"/><rect fill="#FFFFFF" height="208.0625" style="stroke:#181818;stroke-width:1.0;" width="10" x="414" y="471.0547"/><rect fill="#FFFFFF" height="355.5938" style="stroke:#181818;stroke-width:1.0;" width="10" x="414" y="723.3828"/><rect fill="#FFFFFF" height="69.2656" style="stroke:#181818;stroke-width:1.0;" width="10" x="419" y="922.4453"/><rect fill="#FFFFFF" height="34.1328" style="stroke:#181818;stroke-width:1.0;" width="10" x="419" y="1035.8438"/><rect fill="#FFFFFF" height="50.2656" style="stroke:#181818;stroke-width:1.0;" width="10" x="724" y="520.3203"/><rect fill="#FFFFFF" height="282.1953" style="stroke:#181818;stroke-width:1.0;" width="10" x="1470.5" y="796.7813"/><line style="stroke:#181818;stroke-width:0.5;stroke-dasharray:5.0,5.0;" x1="61" x2="61" y1="97.5938" y2="1087.9766"/><line style="stroke:#181818;stroke-width:0.5;stroke-dasharray:5.0,5.0;" x1="389" x2="389" y1="97.5938" y2="1087.9766"/><line style="stroke:#181818;stroke-width:0.5;stroke-dasharray:5.0,5.0;" x1="729" x2="729" y1="97.5938" y2="1087.9766"/><line style="stroke:#181818;stroke-width:0.5;stroke-dasharray:5.0,5.0;" x1="957" x2="957" y1="97.5938" y2="1087.9766"/><line style="stroke:#181818;stroke-width:0.5;stroke-dasharray:5.0,5.0;" x1="1068" x2="1068" y1="97.5938" y2="1087.9766"/><line style="stroke:#181818;stroke-width:0.5;stroke-dasharray:5.0,5.0;" x1="1171" x2="1171" y1="97.5938" y2="1087.9766"/><line style="stroke:#181818;stroke-width:0.5;stroke-dasharray:5.0,5.0;" x1="1475" x2="1475" y1="97.5938" y2="1087.9766"/><text fill="#000000" font-family="sans-serif" font-size="14" lengthAdjust="spacing" textLength="106" x="5" y="77.9951">Admin G&#233;n&#233;ral</text><text fill="#000000" font-family="sans-serif" font-size="14" lengthAdjust="spacing" textLength="66" x="25" y="94.292">(Marjane)</text><ellipse cx="61" cy="13.5" fill="#E2E2F0" rx="8" ry="8" style="stroke:#181818;stroke-width:0.5;"/><path d="M61,21.5 L61,48.5 M48,29.5 L74,29.5 M61,48.5 L48,63.5 M61,48.5 L74,63.5 " fill="none" style="stroke:#181818;stroke-width:0.5;"/><text fill="#000000" font-family="sans-serif" font-size="14" lengthAdjust="spacing" textLength="106" x="5" y="1099.9717">Admin G&#233;n&#233;ral</text><text fill="#000000" font-family="sans-serif" font-size="14" lengthAdjust="spacing" textLength="66" x="25" y="1116.2686">(Marjane)</text><ellipse cx="61" cy="1128.0703" fill="#E2E2F0" rx="8" ry="8" style="stroke:#181818;stroke-width:0.5;"/><path d="M61,1136.0703 L61,1163.0703 M48,1144.0703 L74,1144.0703 M61,1163.0703 L48,1178.0703 M61,1163.0703 L74,1178.0703 " fill="none" style="stroke:#181818;stroke-width:0.5;"/><rect fill="#E2E2F0" height="46.5938" rx="2.5" ry="2.5" style="stroke:#181818;stroke-width:0.5;" width="114" x="332" y="50"/><text fill="#000000" font-family="sans-serif" font-size="14" lengthAdjust="spacing" textLength="100" x="339" y="69.9951">Admin Centre</text><text fill="#000000" font-family="sans-serif" font-size="14" lengthAdjust="spacing" textLength="41" x="368.5" y="86.292">(Ville)</text><rect fill="#E2E2F0" height="46.5938" rx="2.5" ry="2.5" style="stroke:#181818;stroke-width:0.5;" width="114" x="332" y="1086.9766"/><text fill="#000000" font-family="sans-serif" font-size="14" lengthAdjust="spacing" textLength="100" x="339" y="1106.9717">Admin Centre</text><text fill="#000000" font-family="sans-serif" font-size="14" lengthAdjust="spacing" textLength="41" x="368.5" y="1123.2686">(Ville)</text><rect fill="#E2E2F0" height="46.5938" rx="2.5" ry="2.5" style="stroke:#181818;stroke-width:0.5;" width="154" x="652" y="50"/><text fill="#000000" font-family="sans-serif" font-size="14" lengthAdjust="spacing" textLength="140" x="659" y="69.9951">Responsable Rayon</text><text fill="#000000" font-family="sans-serif" font-size="14" lengthAdjust="spacing" textLength="89" x="684.5" y="86.292">(Multim&#233;dia)</text><rect fill="#E2E2F0" height="46.5938" rx="2.5" ry="2.5" style="stroke:#181818;stroke-width:0.5;" width="154" x="652" y="1086.9766"/><text fill="#000000" font-family="sans-serif" font-size="14" lengthAdjust="spacing" textLength="140" x="659" y="1106.9717">Responsable Rayon</text><text fill="#000000" font-family="sans-serif" font-size="14" lengthAdjust="spacing" textLength="89" x="684.5" y="1123.2686">(Multim&#233;dia)</text><text fill="#000000" font-family="sans-serif" font-size="14" lengthAdjust="spacing" textLength="68" x="920" y="94.292">Database</text><path d="M939,45.2969 C939,35.2969 957,35.2969 957,35.2969 C957,35.2969 975,35.2969 975,45.2969 L975,71.2969 C975,81.2969 957,81.2969 957,81.2969 C957,81.2969 939,81.2969 939,71.2969 L939,45.2969 " fill="#E2E2F0" style="stroke:#181818;stroke-width:1.5;"/><path d="M939,45.2969 C939,55.2969 957,55.2969 957,55.2969 C957,55.2969 975,55.2969 975,45.2969 " fill="none" style="stroke:#181818;stroke-width:1.5;"/><text fill="#000000" font-family="sans-serif" font-size="14" lengthAdjust="spacing" textLength="68" x="920" y="1099.9717">Database</text><path d="M939,1113.2734 C939,1103.2734 957,1103.2734 957,1103.2734 C957,1103.2734 975,1103.2734 975,1113.2734 L975,1139.2734 C975,1149.2734 957,1149.2734 957,1149.2734 C957,1149.2734 939,1149.2734 939,1139.2734 L939,1113.2734 " fill="#E2E2F0" style="stroke:#181818;stroke-width:1.5;"/><path d="M939,1113.2734 C939,1123.2734 957,1123.2734 957,1123.2734 C957,1123.2734 975,1123.2734 975,1113.2734 " fill="none" style="stroke:#181818;stroke-width:1.5;"/><rect fill="#E2E2F0" height="30.2969" rx="2.5" ry="2.5" style="stroke:#181818;stroke-width:0.5;" width="129" x="1004" y="66.2969"/><text fill="#000000" font-family="sans-serif" font-size="14" lengthAdjust="spacing" textLength="115" x="1011" y="86.292">Agent de Caisse</text><rect fill="#E2E2F0" height="30.2969" rx="2.5" ry="2.5" style="stroke:#181818;stroke-width:0.5;" width="129" x="1004" y="1086.9766"/><text fill="#000000" font-family="sans-serif" font-size="14" lengthAdjust="spacing" textLength="115" x="1011" y="1106.9717">Agent de Caisse</text><rect fill="#E2E2F0" height="30.2969" rx="2.5" ry="2.5" style="stroke:#181818;stroke-width:0.5;" width="57" x="1143" y="66.2969"/><text fill="#000000" font-family="sans-serif" font-size="14" lengthAdjust="spacing" textLength="43" x="1150" y="86.292">Client</text><rect fill="#E2E2F0" height="30.2969" rx="2.5" ry="2.5" style="stroke:#181818;stroke-width:0.5;" width="57" x="1143" y="1086.9766"/><text fill="#000000" font-family="sans-serif" font-size="14" lengthAdjust="spacing" textLength="43" x="1150" y="1106.9717">Client</text><rect fill="#E2E2F0" height="30.2969" rx="2.5" ry="2.5" style="stroke:#181818;stroke-width:0.5;" width="129" x="1411" y="66.2969"/><text fill="#000000" font-family="sans-serif" font-size="14" lengthAdjust="spacing" textLength="115" x="1418" y="86.292">Agent de Caisse</text><rect fill="#E2E2F0" height="30.2969" rx="2.5" ry="2.5" style="stroke:#181818;stroke-width:0.5;" width="129" x="1411" y="1086.9766"/><text fill="#000000" font-family="sans-serif" font-size="14" lengthAdjust="spacing" textLength="115" x="1418" y="1106.9717">Agent de Caisse</text><rect fill="#FFFFFF" height="899.9844" style="stroke:#181818;stroke-width:1.0;" width="10" x="384" y="178.9922"/><rect fill="#FFFFFF" height="862.8516" style="stroke:#181818;stroke-width:1.0;" width="10" x="389" y="216.125"/><rect fill="#FFFFFF" height="820.7188" style="stroke:#181818;stroke-width:1.0;" width="10" x="394" y="258.2578"/><rect fill="#FFFFFF" height="778.5859" style="stroke:#181818;stroke-width:1.0;" width="10" x="399" y="300.3906"/><rect fill="#FFFFFF" height="707.3203" style="stroke:#181818;stroke-width:1.0;" width="10" x="404" y="371.6563"/><rect fill="#FFFFFF" height="665.1875" style="stroke:#181818;stroke-width:1.0;" width="10" x="409" y="413.7891"/><rect fill="#FFFFFF" height="208.0625" style="stroke:#181818;stroke-width:1.0;" width="10" x="414" y="471.0547"/><rect fill="#FFFFFF" height="355.5938" style="stroke:#181818;stroke-width:1.0;" width="10" x="414" y="723.3828"/><rect fill="#FFFFFF" height="69.2656" style="stroke:#181818;stroke-width:1.0;" width="10" x="419" y="922.4453"/><rect fill="#FFFFFF" height="34.1328" style="stroke:#181818;stroke-width:1.0;" width="10" x="419" y="1035.8438"/><rect fill="#FFFFFF" height="50.2656" style="stroke:#181818;stroke-width:1.0;" width="10" x="724" y="520.3203"/><rect fill="#FFFFFF" height="282.1953" style="stroke:#181818;stroke-width:1.0;" width="10" x="1470.5" y="796.7813"/><path d="M394,112.5938 L394,152.5938 L608,152.5938 L608,122.5938 L598,112.5938 L394,112.5938 " fill="#FEFFDD" style="stroke:#181818;stroke-width:0.5;"/><path d="M598,112.5938 L598,122.5938 L608,122.5938 L598,112.5938 " fill="#FEFFDD" style="stroke:#181818;stroke-width:0.5;"/><text fill="#000000" font-family="sans-serif" font-size="13" lengthAdjust="spacing" textLength="154" x="400" y="129.6606">Cr&#233;ation\nAdmin Centre</text><text fill="#000000" font-family="sans-serif" font-size="13" lengthAdjust="spacing" textLength="193" x="400" y="144.7935">Cr&#233;ation\nResponsable Rayon</text><polygon fill="#181818" points="372,174.9922,382,178.9922,372,182.9922,376,178.9922" style="stroke:#181818;stroke-width:1.0;"/><line style="stroke:#181818;stroke-width:1.0;" x1="61" x2="378" y1="178.9922" y2="178.9922"/><text fill="#000000" font-family="sans-serif" font-size="13" font-weight="bold" lengthAdjust="spacing" textLength="9" x="68" y="173.9263">1</text><text fill="#000000" font-family="sans-serif" font-size="13" lengthAdjust="spacing" textLength="101" x="81" y="173.9263">Authentification</text><line style="stroke:#181818;stroke-width:1.0;" x1="394" x2="441" y1="203.125" y2="203.125"/><line style="stroke:#181818;stroke-width:1.0;" x1="441" x2="441" y1="203.125" y2="216.125"/><line style="stroke:#181818;stroke-width:1.0;" x1="400" x2="441" y1="216.125" y2="216.125"/><polygon fill="#181818" points="410,212.125,400,216.125,410,220.125,406,216.125" style="stroke:#181818;stroke-width:1.0;"/><text fill="#000000" font-family="sans-serif" font-size="13" font-weight="bold" lengthAdjust="spacing" textLength="9" x="406" y="198.0591">2</text><text fill="#000000" font-family="sans-serif" font-size="13" lengthAdjust="spacing" textLength="146" x="419" y="198.0591">Cr&#233;ation Admin Centre</text><line style="stroke:#181818;stroke-width:1.0;" x1="399" x2="446" y1="245.2578" y2="245.2578"/><line style="stroke:#181818;stroke-width:1.0;" x1="446" x2="446" y1="245.2578" y2="258.2578"/><line style="stroke:#181818;stroke-width:1.0;" x1="405" x2="446" y1="258.2578" y2="258.2578"/><polygon fill="#181818" points="415,254.2578,405,258.2578,415,262.2578,411,258.2578" style="stroke:#181818;stroke-width:1.0;"/><text fill="#000000" font-family="sans-serif" font-size="13" font-weight="bold" lengthAdjust="spacing" textLength="8" x="411" y="240.1919">3</text><text fill="#000000" font-family="sans-serif" font-size="13" lengthAdjust="spacing" textLength="193" x="423" y="240.1919">Authentification Admin Centre</text><line style="stroke:#181818;stroke-width:1.0;" x1="404" x2="451" y1="287.3906" y2="287.3906"/><line style="stroke:#181818;stroke-width:1.0;" x1="451" x2="451" y1="287.3906" y2="300.3906"/><line style="stroke:#181818;stroke-width:1.0;" x1="410" x2="451" y1="300.3906" y2="300.3906"/><polygon fill="#181818" points="420,296.3906,410,300.3906,420,304.3906,416,300.3906" style="stroke:#181818;stroke-width:1.0;"/><text fill="#000000" font-family="sans-serif" font-size="13" font-weight="bold" lengthAdjust="spacing" textLength="9" x="416" y="282.3247">4</text><text fill="#000000" font-family="sans-serif" font-size="13" lengthAdjust="spacing" textLength="185" x="429" y="282.3247">Cr&#233;ation Responsable Rayon</text><polygon fill="#181818" points="945,330.5234,955,334.5234,945,338.5234,949,334.5234" style="stroke:#181818;stroke-width:1.0;"/><line style="stroke:#181818;stroke-width:1.0;" x1="409" x2="951" y1="334.5234" y2="334.5234"/><text fill="#000000" font-family="sans-serif" font-size="13" font-weight="bold" lengthAdjust="spacing" textLength="9" x="416" y="329.4575">5</text><text fill="#000000" font-family="sans-serif" font-size="13" lengthAdjust="spacing" textLength="166" x="429" y="329.4575">Enregistrement Op&#233;ration</text><line style="stroke:#181818;stroke-width:1.0;" x1="409" x2="456" y1="358.6563" y2="358.6563"/><line style="stroke:#181818;stroke-width:1.0;" x1="456" x2="456" y1="358.6563" y2="371.6563"/><line style="stroke:#181818;stroke-width:1.0;" x1="415" x2="456" y1="371.6563" y2="371.6563"/><polygon fill="#181818" points="425,367.6563,415,371.6563,425,375.6563,421,371.6563" style="stroke:#181818;stroke-width:1.0;"/><text fill="#000000" font-family="sans-serif" font-size="13" font-weight="bold" lengthAdjust="spacing" textLength="9" x="421" y="353.5903">6</text><text fill="#000000" font-family="sans-serif" font-size="13" lengthAdjust="spacing" textLength="232" x="434" y="353.5903">Authentification Responsable Rayon</text><line style="stroke:#181818;stroke-width:1.0;" x1="414" x2="461" y1="400.7891" y2="400.7891"/><line style="stroke:#181818;stroke-width:1.0;" x1="461" x2="461" y1="400.7891" y2="413.7891"/><line style="stroke:#181818;stroke-width:1.0;" x1="420" x2="461" y1="413.7891" y2="413.7891"/><polygon fill="#181818" points="430,409.7891,420,413.7891,430,417.7891,426,413.7891" style="stroke:#181818;stroke-width:1.0;"/><text fill="#000000" font-family="sans-serif" font-size="13" font-weight="bold" lengthAdjust="spacing" textLength="9" x="426" y="395.7231">7</text><text fill="#000000" font-family="sans-serif" font-size="13" lengthAdjust="spacing" textLength="124" x="439" y="395.7231">Cr&#233;ation Promotion</text><line style="stroke:#181818;stroke-width:1.0;" x1="419" x2="466" y1="458.0547" y2="458.0547"/><line style="stroke:#181818;stroke-width:1.0;" x1="466" x2="466" y1="458.0547" y2="471.0547"/><line style="stroke:#181818;stroke-width:1.0;" x1="425" x2="466" y1="471.0547" y2="471.0547"/><polygon fill="#181818" points="435,467.0547,425,471.0547,435,475.0547,431,471.0547" style="stroke:#181818;stroke-width:1.0;"/><text fill="#000000" font-family="sans-serif" font-size="13" font-weight="bold" lengthAdjust="spacing" textLength="9" x="431" y="445.4224">8</text><text fill="#000000" font-family="sans-serif" font-size="13" lengthAdjust="spacing" textLength="80" x="444" y="437.856">Consultation</text><text fill="#000000" font-family="sans-serif" font-size="13" lengthAdjust="spacing" textLength="132" x="444" y="452.9888">Promotions (8h-12h)</text><polygon fill="#181818" points="435,516.3203,425,520.3203,435,524.3203,431,520.3203" style="stroke:#181818;stroke-width:1.0;"/><line style="stroke:#181818;stroke-width:1.0;" x1="429" x2="723" y1="520.3203" y2="520.3203"/><text fill="#000000" font-family="sans-serif" font-size="13" font-weight="bold" lengthAdjust="spacing" textLength="9" x="441" y="507.688">9</text><text fill="#000000" font-family="sans-serif" font-size="13" lengthAdjust="spacing" textLength="80" x="454" y="500.1216">Consultation</text><text fill="#000000" font-family="sans-serif" font-size="13" lengthAdjust="spacing" textLength="134" x="454" y="515.2544">Liste des Promotions</text><line style="stroke:#181818;stroke-width:1.0;" x1="734" x2="776" y1="569.5859" y2="569.5859"/><line style="stroke:#181818;stroke-width:1.0;" x1="776" x2="776" y1="569.5859" y2="582.5859"/><line style="stroke:#181818;stroke-width:1.0;" x1="729" x2="776" y1="582.5859" y2="582.5859"/><polygon fill="#181818" points="739,578.5859,729,582.5859,739,586.5859,735,582.5859" style="stroke:#181818;stroke-width:1.0;"/><text fill="#000000" font-family="sans-serif" font-size="13" font-weight="bold" lengthAdjust="spacing" textLength="19" x="741" y="556.9536">10</text><text fill="#000000" font-family="sans-serif" font-size="13" lengthAdjust="spacing" textLength="181" x="764" y="549.3872">Accepter/Refuser Promotion</text><text fill="#000000" font-family="sans-serif" font-size="13" lengthAdjust="spacing" textLength="123" x="764" y="564.52">avec Commentaire</text><line style="stroke:#181818;stroke-width:1.0;" x1="424" x2="466" y1="626.8516" y2="626.8516"/><line style="stroke:#181818;stroke-width:1.0;" x1="466" x2="466" y1="626.8516" y2="639.8516"/><line style="stroke:#181818;stroke-width:1.0;" x1="419" x2="466" y1="639.8516" y2="639.8516"/><polygon fill="#181818" points="429,635.8516,419,639.8516,429,643.8516,425,639.8516" style="stroke:#181818;stroke-width:1.0;"/><text fill="#000000" font-family="sans-serif" font-size="13" font-weight="bold" lengthAdjust="spacing" textLength="18" x="431" y="614.2192">11</text><text fill="#000000" font-family="sans-serif" font-size="13" lengthAdjust="spacing" textLength="80" x="453" y="606.6528">Consultation</text><text fill="#000000" font-family="sans-serif" font-size="13" lengthAdjust="spacing" textLength="132" x="453" y="621.7856">Promotions (8h-12h)</text><polygon fill="#181818" points="72,675.1172,62,679.1172,72,683.1172,68,679.1172" style="stroke:#181818;stroke-width:1.0;"/><line style="stroke:#181818;stroke-width:1.0;" x1="66" x2="408" y1="679.1172" y2="679.1172"/><text fill="#000000" font-family="sans-serif" font-size="13" font-weight="bold" lengthAdjust="spacing" textLength="18" x="78" y="666.4849">12</text><text fill="#000000" font-family="sans-serif" font-size="13" lengthAdjust="spacing" textLength="80" x="100" y="658.9185">Consultation</text><text fill="#000000" font-family="sans-serif" font-size="13" lengthAdjust="spacing" textLength="277" x="100" y="674.0513">Promotions (Appliqu&#233;es et Non Appliqu&#233;es)</text><polygon fill="#181818" points="402,719.3828,412,723.3828,402,727.3828,406,723.3828" style="stroke:#181818;stroke-width:1.0;"/><line style="stroke:#181818;stroke-width:1.0;" x1="61" x2="408" y1="723.3828" y2="723.3828"/><text fill="#000000" font-family="sans-serif" font-size="13" font-weight="bold" lengthAdjust="spacing" textLength="17" x="68" y="710.7505">13</text><text fill="#000000" font-family="sans-serif" font-size="13" lengthAdjust="spacing" textLength="80" x="89" y="703.1841">Visualisation</text><text fill="#000000" font-family="sans-serif" font-size="13" lengthAdjust="spacing" textLength="152" x="89" y="718.3169">Statistiques Promotions</text><polygon fill="#181818" points="945,748.5156,955,752.5156,945,756.5156,949,752.5156" style="stroke:#181818;stroke-width:1.0;"/><line style="stroke:#181818;stroke-width:1.0;" x1="424" x2="951" y1="752.5156" y2="752.5156"/><text fill="#000000" font-family="sans-serif" font-size="13" font-weight="bold" lengthAdjust="spacing" textLength="18" x="431" y="747.4497">14</text><text fill="#000000" font-family="sans-serif" font-size="13" lengthAdjust="spacing" textLength="166" x="453" y="747.4497">Enregistrement Op&#233;ration</text><polygon fill="#181818" points="1458.5,792.7813,1468.5,796.7813,1458.5,800.7813,1462.5,796.7813" style="stroke:#181818;stroke-width:1.0;"/><line style="stroke:#181818;stroke-width:1.0;" x1="424" x2="1464.5" y1="796.7813" y2="796.7813"/><text fill="#000000" font-family="sans-serif" font-size="13" font-weight="bold" lengthAdjust="spacing" textLength="18" x="431" y="784.1489">15</text><text fill="#000000" font-family="sans-serif" font-size="13" lengthAdjust="spacing" textLength="54" x="453" y="776.5825">Cr&#233;ation</text><text fill="#000000" font-family="sans-serif" font-size="13" lengthAdjust="spacing" textLength="90" x="453" y="791.7153">Client Marjane</text><polygon fill="#181818" points="1182.5,837.0469,1172.5,841.0469,1182.5,845.0469,1178.5,841.0469" style="stroke:#181818;stroke-width:1.0;"/><line style="stroke:#181818;stroke-width:1.0;" x1="1176.5" x2="1469.5" y1="841.0469" y2="841.0469"/><text fill="#000000" font-family="sans-serif" font-size="13" font-weight="bold" lengthAdjust="spacing" textLength="18" x="1188.5" y="828.4146">16</text><text fill="#000000" font-family="sans-serif" font-size="13" lengthAdjust="spacing" textLength="35" x="1210.5" y="820.8481">Envoi</text><text fill="#000000" font-family="sans-serif" font-size="13" lengthAdjust="spacing" textLength="253" x="1210.5" y="835.981">Code carte fid&#233;lit&#233; et Historique d'achat</text><polygon fill="#181818" points="945,866.1797,955,870.1797,945,874.1797,949,870.1797" style="stroke:#181818;stroke-width:1.0;"/><line style="stroke:#181818;stroke-width:1.0;" x1="424" x2="951" y1="870.1797" y2="870.1797"/><text fill="#000000" font-family="sans-serif" font-size="13" font-weight="bold" lengthAdjust="spacing" textLength="18" x="431" y="865.1138">17</text><text fill="#000000" font-family="sans-serif" font-size="13" lengthAdjust="spacing" textLength="166" x="453" y="865.1138">Enregistrement Op&#233;ration</text><line style="stroke:#181818;stroke-width:1.0;" x1="424" x2="471" y1="909.4453" y2="909.4453"/><line style="stroke:#181818;stroke-width:1.0;" x1="471" x2="471" y1="909.4453" y2="922.4453"/><line style="stroke:#181818;stroke-width:1.0;" x1="430" x2="471" y1="922.4453" y2="922.4453"/><polygon fill="#181818" points="440,918.4453,430,922.4453,440,926.4453,436,922.4453" style="stroke:#181818;stroke-width:1.0;"/><text fill="#000000" font-family="sans-serif" font-size="13" font-weight="bold" lengthAdjust="spacing" textLength="18" x="436" y="896.813">18</text><text fill="#000000" font-family="sans-serif" font-size="13" lengthAdjust="spacing" textLength="76" x="458" y="889.2466">Modification</text><text fill="#000000" font-family="sans-serif" font-size="13" lengthAdjust="spacing" textLength="179" x="458" y="904.3794">Dur&#233;e de validit&#233; Promotion</text><polygon fill="#181818" points="945,952.5781,955,956.5781,945,960.5781,949,956.5781" style="stroke:#181818;stroke-width:1.0;"/><line style="stroke:#181818;stroke-width:1.0;" x1="429" x2="951" y1="956.5781" y2="956.5781"/><text fill="#000000" font-family="sans-serif" font-size="13" font-weight="bold" lengthAdjust="spacing" textLength="18" x="436" y="951.5122">19</text><text fill="#000000" font-family="sans-serif" font-size="13" lengthAdjust="spacing" textLength="166" x="458" y="951.5122">Enregistrement Op&#233;ration</text><line style="stroke:#181818;stroke-width:1.0;" x1="429" x2="471" y1="990.7109" y2="990.7109"/><line style="stroke:#181818;stroke-width:1.0;" x1="471" x2="471" y1="990.7109" y2="1003.7109"/><line style="stroke:#181818;stroke-width:1.0;" x1="424" x2="471" y1="1003.7109" y2="1003.7109"/><polygon fill="#181818" points="434,999.7109,424,1003.7109,434,1007.7109,430,1003.7109" style="stroke:#181818;stroke-width:1.0;"/><text fill="#000000" font-family="sans-serif" font-size="13" font-weight="bold" lengthAdjust="spacing" textLength="19" x="436" y="985.645">20</text><text fill="#000000" font-family="sans-serif" font-size="13" lengthAdjust="spacing" textLength="192" x="459" y="985.645">Validation Promotion (8h-12h)</text><line style="stroke:#181818;stroke-width:1.0;" x1="424" x2="471" y1="1022.8438" y2="1022.8438"/><line style="stroke:#181818;stroke-width:1.0;" x1="471" x2="471" y1="1022.8438" y2="1035.8438"/><line style="stroke:#181818;stroke-width:1.0;" x1="430" x2="471" y1="1035.8438" y2="1035.8438"/><polygon fill="#181818" points="440,1031.8438,430,1035.8438,440,1039.8438,436,1035.8438" style="stroke:#181818;stroke-width:1.0;"/><text fill="#000000" font-family="sans-serif" font-size="13" font-weight="bold" lengthAdjust="spacing" textLength="18" x="436" y="1017.7778">21</text><text fill="#000000" font-family="sans-serif" font-size="13" lengthAdjust="spacing" textLength="264" x="458" y="1017.7778">Non Trait&#233;e Affich&#233;e chez Admin G&#233;n&#233;ral</text><polygon fill="#181818" points="945,1065.9766,955,1069.9766,945,1073.9766,949,1069.9766" style="stroke:#181818;stroke-width:1.0;"/><line style="stroke:#181818;stroke-width:1.0;" x1="424" x2="951" y1="1069.9766" y2="1069.9766"/><text fill="#000000" font-family="sans-serif" font-size="13" font-weight="bold" lengthAdjust="spacing" textLength="18" x="431" y="1064.9106">22</text><text fill="#000000" font-family="sans-serif" font-size="13" lengthAdjust="spacing" textLength="166" x="453" y="1064.9106">Enregistrement Op&#233;ration</text><!--SRC=[hLNRQjj047tNLqpIXoOFeMwX4FnG47QT5k8ekCLGC9IrDBAsIBlgxihG_f6-Gp_MMKksRbOID_RJQi_EcJDNNmGOSe7mkF3cti-9T-yjuCrivduSZPoB2dEdywyFUsn4lzdiW2tS7ru3koNKSPXlf89BDqYuWBiY5qMkMBmILtEcVZ61rvV0DEpWEnH8c9CoPRZFKoRCtd22mYWagoMFuwPD2RHD5gXJAJHRnwI9_P72UijYmvCY3pWhhHkFTc-SW1csPXfXMXqwEZRa2GA42UDQOwd0tfNVhSUJc1FW26aG5Dz41cJOaWimKKNE3BVQcX6saLuW3ee0B2tbDJDIPCaQbTDC7jnyQdeQWvkPY8uyvFwErHQ4RnafQmfo6XyzYeCYQ4azdQYhvRLyjR1-fbx4jY_r63uBXHkkwJwnTVPIswQxV9qMqNyA6GZhKSb43bVjIH9IGJrVTTA1ICFLRNJp_aDqFI2iEnVF4DzJpf36GjTQTStS6x9ZxDqxoghlOsfGlLjWc6bKDVTAi2twf26nPMAS50SuxEwL6JgPkXh2fxZTD8tvxwp8AMLeuC5EGNtLyjahzT2CBxdEMCnrvUwRzQiDKGwKvTmZqLkEu-OMAxSXLFk-Lj6pSfp-bYNsqjxgsKfET99WdxOjGiY38e-vANARoY-aLIeRDGHlcHynS_vvdylWCEihCSqeIjlziANq1piXpupisHKjhUVEjZZQmIzUFxOblojceo6haCADxCcFy2zq_iRF5-DneVy0]--></g></svg>